<?xml version="1.0" encoding="utf-8"?>
<!-- Generator: Adobe Illustrator 22.0.1, SVG Export Plug-In . SVG Version: 6.00 Build 0)  -->
<svg version="1.1" id="Layer_1" xmlns="http://www.w3.org/2000/svg" xmlns:xlink="http://www.w3.org/1999/xlink" x="0px" y="0px"
	 viewBox="0 0 400 202.2" style="enable-background:new 0 0 1339.3 202.2;" xml:space="preserve">
<style type="text/css">
	.st0{fill:#fff;}
</style>
<g>
	<path class="st0" d="M74.5,12.2H31.2c-4.9,0-8.8,4.2-8.8,9.3V181c0,4.9,3.9,9.1,8.8,9.1H75c48.9,0,85.9-36,85.9-88.6
		C160.9,47.4,125.9,12.2,74.5,12.2z M75.8,165.9H47.6V36.4h27.9c37.4,0,60.2,26.4,60.2,65.1C135.7,138.9,112.2,165.9,75.8,165.9z"/>
	<path class="st0" d="M202.8,88.7c-4.9,0-8.8,4.2-8.8,9.3v6.5c0,5.1,3.9,9.1,8.8,9.1h69.7c5.1,0,9.1-3.9,9.1-9.1v-6.7
		c0-5.1-3.9-9.1-9.1-9.1H202.8z"/>
	<g>
		<path class="st0" d="M192.8,36c-4.8,1.1-7.7,6-6.5,11l1.4,6.3c1.1,5,5.8,8,10.6,6.9l110-25.7c5-1.1,8-5.8,6.8-10.8l-1.5-6.6
			c-1.1-5-5.8-8-10.8-6.8L192.8,36z"/>
		<path class="st0" d="M308.6,167.8c4.8,1.1,7.7,6,6.5,11l-1.4,6.3c-1.1,5-5.8,8-10.6,6.9l-110-25.7c-5-1.1-8-5.8-6.8-10.8l1.5-6.6
			c1.1-5,5.8-8,10.8-6.8L308.6,167.8z"/>
	</g>
</g>
</svg>
