<?xml version="1.0" encoding="utf-8"?>
<svg id="Layer_1" data-name="Layer 1" xmlns="http://www.w3.org/2000/svg" viewBox="0 0 462.11 65.54">
<style type="text/css">
	.st0{fill:#fff;}
</style>
    <path class="st0" d="M24.06,25h22.7C62.94,25,75.44,37.4,75.44,56.5s-12.5,31.86-28.6,31.86H24.06ZM45.81,79C57,79,65,71.83,65,56.5S57,34.32,45.81,34.32H34.08V79Z" transform="translate(-24.06 -23.93)"/>
    <path class="st0" d="M144.83,25h10V88.36h-10Z" transform="translate(-24.06 -23.93)"/>
    <path class="st0" d="M179,56.33c0,15.16,8.31,23.29,19.44,23.29,7.11,0,13.19-3.51,16.61-11.13l8,5c-5,10.79-14,15.75-25,15.75-17,0-29.46-12.5-29.46-32.79,0-19.7,13.79-32.29,30-32.29,10.87,0,19.27,4.88,23.8,14.3l-8.73,4.88a16.13,16.13,0,0,0-15.07-9.59C188.46,33.72,179,40.83,179,56.33Z" transform="translate(-24.06 -23.93)"/>
    <path class="st0" d="M283.48,25V88.36h-10V61.3H245.09V88.36h-10V25h10V51.62h28.37V25Z" transform="translate(-24.06 -23.93)"/>
    <path class="st0" d="M359.48,25V88.36H349.37V42.12L331.9,69.35h-3.77L310.66,41.94V88.36h-10V25h9.94L330,55.9,349.54,25Z" transform="translate(-24.06 -23.93)"/>
    <path class="st0" d="M410.19,72.94H386l-5,15.42H370.46l22-63.37h11.9l21.92,63.37H415.07Zm-2.82-9-9.17-29.2L388.78,64Z" transform="translate(-24.06 -23.93)"/>
    <path class="st0" d="M486.17,25V88.36h-8.82L446.87,42.89V88.36h-9.6V25h9.51l29.8,44.7V25Z" transform="translate(-24.06 -23.93)"/>
    <rect class="st0" x="62.9" y="28.14" width="28.49" height="9.25"/>
    <rect class="st0" x="83.94" y="28.17" width="46.77" height="9.25" transform="translate(-28.28 -3.51) rotate(-10.66)"/>
    <rect class="st0" x="102.7" y="57.21" width="9.25" height="46.77" transform="translate(-15.79 147.24) rotate(-79.34)"/>
</svg>