<svg width="24" height="24" viewBox="0 0 24 24" fill="none" xmlns="http://www.w3.org/2000/svg">
<path d="M12 6.116V18.116" stroke="black" stroke-width="2" stroke-linecap="round" stroke-linejoin="round"/>
<path d="M20 6.00198V14.73C19.9999 15.1375 19.8753 15.5351 19.643 15.8699C19.4107 16.2046 19.0817 16.4604 18.7 16.603L12 19.116L5.29999 16.603C4.91831 16.4604 4.58932 16.2046 4.35699 15.8699C4.12467 15.5351 4.0001 15.1375 4 14.73V6.00198C4.00008 5.67907 4.07838 5.36097 4.22815 5.07489C4.37792 4.7888 4.59472 4.54325 4.86005 4.35919C5.12537 4.17513 5.43129 4.05806 5.75171 4.01797C6.07213 3.97789 6.39752 4.01598 6.70001 4.129L12 6.116L17.3 4.129C17.6025 4.01598 17.9279 3.97789 18.2483 4.01797C18.5687 4.05806 18.8746 4.17513 19.14 4.35919C19.4053 4.54325 19.6221 4.7888 19.7719 5.07489C19.9216 5.36097 19.9999 5.67907 20 6.00198Z" stroke="black" stroke-width="2" stroke-linejoin="round"/>
</svg>
