<svg id="Layer_1" data-name="Layer 1" xmlns="http://www.w3.org/2000/svg" width="24" height="24" viewBox="0 0 24 24">
    <path fill="black" d="M17,9H15V8a1,1,0,0,0-1-1H13a2,2,0,0,1,2-2,1,1,0,1,0,0-2,4,4,0,0,0-4,4H10A1,1,0,0,0,9,8V9H7a5,5,0,0,0-5,5v2.5a4.5,4.5,0,0,0,8.88,1l2.24,0a4.5,4.5,0,0,0,8.88-1V14A5,5,0,0,0,17,9Zm.5,10a2.49,2.49,0,0,1-2.44-1.93,2,2,0,0,0-1.94-1.57H10.87a2,2,0,0,0-1.95,1.57A2.47,2.47,0,0,1,6.49,19,2.5,2.5,0,0,1,4,16.5V14a3,3,0,0,1,3-3H17a3,3,0,0,1,3,3v2.5A2.5,2.5,0,0,1,17.49,19Z"/>
    <path fill="black" d="M15.47,12.69h0A2,2,0,0,0,15,14.15,2,2,0,0,0,17,16h.15a1.93,1.93,0,0,0,1.36-.68,2,2,0,0,0-.21-2.83A2,2,0,0,0,15.47,12.69Z"/>
    <path fill="black" d="M8,13a1,1,0,0,0-2,0,1,1,0,0,0,0,2,1,1,0,0,0,2,0,1,1,0,1,0,0-2Z"/>
</svg>