<svg width="24" height="24" viewBox="0 0 24 24" fill="none" xmlns="http://www.w3.org/2000/svg">
<path d="M10.683 4.495L4.68298 9.745C4.46834 9.93281 4.29639 10.1644 4.17859 10.4241C4.06079 10.6838 3.99988 10.9658 4 11.251V17.343C4 17.8734 4.21074 18.3821 4.58582 18.7572C4.96089 19.1323 5.46957 19.343 6 19.343H8C8.53043 19.343 9.03911 19.1323 9.41418 18.7572C9.78926 18.3821 10 17.8734 10 17.343V16.343C10 15.8126 10.2107 15.3038 10.5858 14.9288C10.9609 14.5537 11.4696 14.343 12 14.343C12.5304 14.343 13.0391 14.5537 13.4142 14.9288C13.7893 15.3038 14 15.8126 14 16.343V17.343C14 17.8734 14.2107 18.3821 14.5858 18.7572C14.9609 19.1323 15.4696 19.343 16 19.343H18C18.5304 19.343 19.0391 19.1323 19.4142 18.7572C19.7893 18.3821 20 17.8734 20 17.343V11.251C20.0001 10.9658 19.9392 10.6838 19.8214 10.4241C19.7036 10.1644 19.5317 9.93281 19.317 9.745L13.317 4.495C12.9524 4.17599 12.4844 4.00015 12 4.00015C11.5156 4.00015 11.0476 4.17599 10.683 4.495V4.495Z" stroke="black" stroke-width="2" stroke-linecap="round" stroke-linejoin="round"/>
</svg>
