<svg width="24" height="24" viewBox="0 0 24 24" fill="none" xmlns="http://www.w3.org/2000/svg">
<path d="M7 4H5C4.44772 4 4 4.44772 4 5V7C4 7.55228 4.44772 8 5 8H7C7.55228 8 8 7.55228 8 7V5C8 4.44772 7.55228 4 7 4Z" fill="black"/>
<path d="M19 5H11C10.4477 5 10 5.44772 10 6C10 6.55228 10.4477 7 11 7H19C19.5523 7 20 6.55228 20 6C20 5.44772 19.5523 5 19 5Z" fill="black"/>
<path d="M7 10H5C4.44772 10 4 10.4477 4 11V13C4 13.5523 4.44772 14 5 14H7C7.55228 14 8 13.5523 8 13V11C8 10.4477 7.55228 10 7 10Z" fill="black"/>
<path d="M19 11H11C10.4477 11 10 11.4477 10 12C10 12.5523 10.4477 13 11 13H19C19.5523 13 20 12.5523 20 12C20 11.4477 19.5523 11 19 11Z" fill="black"/>
<path d="M7 16H5C4.44772 16 4 16.4477 4 17V19C4 19.5523 4.44772 20 5 20H7C7.55228 20 8 19.5523 8 19V17C8 16.4477 7.55228 16 7 16Z" fill="black"/>
<path d="M19 17H11C10.4477 17 10 17.4477 10 18C10 18.5523 10.4477 19 11 19H19C19.5523 19 20 18.5523 20 18C20 17.4477 19.5523 17 19 17Z" fill="black"/>
</svg>
