<svg width="24" height="24" viewBox="0 0 24 24" fill="none" xmlns="http://www.w3.org/2000/svg">
<path d="M11.1 10.468L15 9L13.532 12.9C13.4789 13.0449 13.3949 13.1766 13.2857 13.2857C13.1766 13.3949 13.045 13.4789 12.9 13.532L9 15L10.468 11.1C10.5211 10.9551 10.6051 10.8234 10.7143 10.7143C10.8234 10.6051 10.955 10.5211 11.1 10.468V10.468Z" stroke="black" stroke-width="2" stroke-linecap="round" stroke-linejoin="round"/>
<path d="M12 20C16.4183 20 20 16.4183 20 12C20 7.58172 16.4183 4 12 4C7.58172 4 4 7.58172 4 12C4 16.4183 7.58172 20 12 20Z" stroke="black" stroke-width="2" stroke-linecap="round" stroke-linejoin="round"/>
<path d="M10.714 10.714L13.285 13.285L9 15L10.714 10.714Z" fill="black"/>
</svg>
