<svg xmlns="http://www.w3.org/2000/svg" width="24" height="24" viewBox="0 0 24 24">
  <rect width="24" height="24" transform="translate(591 995)" fill="none"/>
  <path fill="black" d="M875,377a4,4,0,1,1,4-4A4,4,0,0,1,875,377Zm0-6a2,2,0,1,0,2,2A2,2,0,0,0,875,371Z"/>
  <path fill="black" d="M865,379a4,4,0,1,1,4-4A4,4,0,0,1,865,379Zm0-6a2,2,0,1,0,2,2A2,2,0,0,0,865,373Z"/>
  <path fill="black" d="M868,376a1,1,0,0,1-1-1v-9.2a1,1,0,0,1,2,0V375A1,1,0,0,1,868,376Z"/>
  <path fill="black" d="M878,374a1,1,0,0,1-1-1v-9a1,1,0,0,0-1.287-.958l-6,1.8a.994.994,0,0,0-.713.958.87.87,0,0,0,1.119.832l4.594-1.378a1,1,0,1,1,.574,1.916l-4.594,1.378A2.868,2.868,0,0,1,867,365.8a2.982,2.982,0,0,1,2.139-2.874l6-1.8A3,3,0,0,1,879,364v9A1,1,0,0,1,878,374Z"/>
</svg>
