<svg width="24" height="24" viewBox="0 0 24 24" fill="none" xmlns="http://www.w3.org/2000/svg">
<path d="M7 11.818V10C7 8.67392 7.5268 7.40213 8.46448 6.46445C9.40216 5.52677 10.6739 5 12 5C13.3261 5 14.5978 5.52677 15.5355 6.46445C16.4732 7.40213 17 8.67392 17 10V11.818" stroke="black" stroke-width="2" stroke-linejoin="round"/>
<path d="M7.645 18.818H6.355C5.73041 18.818 5.13141 18.5699 4.68976 18.1282C4.24811 17.6866 4 17.0876 4 16.463L4 13.992C3.99987 13.6826 4.06069 13.3763 4.17898 13.0905C4.29727 12.8046 4.47071 12.5449 4.68941 12.3261C4.9081 12.1073 5.16776 11.9338 5.45355 11.8154C5.73934 11.6969 6.04565 11.636 6.355 11.636H7.645C7.82302 11.636 7.99931 11.6711 8.16377 11.7392C8.32823 11.8074 8.47765 11.9073 8.60348 12.0332C8.72932 12.1591 8.82911 12.3086 8.89714 12.4732C8.96518 12.6377 9.00013 12.814 9 12.992V17.463C9 17.8224 8.85724 18.167 8.60313 18.4211C8.34902 18.6752 8.00437 18.818 7.645 18.818V18.818Z" stroke="black" stroke-width="2" stroke-linecap="round" stroke-linejoin="round"/>
<path d="M16.355 11.636H17.645C18.2696 11.636 18.8686 11.8841 19.3102 12.3257C19.7519 12.7674 20 13.3664 20 13.991V16.462C20.0001 16.7713 19.9393 17.0777 19.821 17.3635C19.7027 17.6494 19.5293 17.9091 19.3106 18.1279C19.0919 18.3467 18.8322 18.5202 18.5465 18.6386C18.2607 18.757 17.9543 18.818 17.645 18.818H16.355C16.177 18.818 16.0007 18.7829 15.8362 18.7147C15.6718 18.6466 15.5224 18.5467 15.3965 18.4208C15.2707 18.2948 15.1709 18.1453 15.1029 17.9808C15.0348 17.8163 14.9999 17.64 15 17.462V12.991C15 12.6316 15.1428 12.287 15.3969 12.0329C15.651 11.7787 15.9956 11.636 16.355 11.636V11.636Z" stroke="black" stroke-width="2" stroke-linecap="round" stroke-linejoin="round"/>
</svg>
