<svg width="24" height="24" viewBox="0 0 24 24" fill="none" xmlns="http://www.w3.org/2000/svg">
<path d="M9.993 13H14.007C14.6627 13 15.312 13.1291 15.9177 13.3801C16.5235 13.631 17.0739 13.9988 17.5376 14.4624C18.0012 14.9261 18.369 15.4765 18.6199 16.0823C18.8709 16.688 19 17.3373 19 17.993V19C19 19.5304 18.7893 20.0391 18.4142 20.4142C18.0391 20.7893 17.5304 21 17 21H7C6.46957 21 5.96086 20.7893 5.58579 20.4142C5.21071 20.0391 5 19.5304 5 19V17.993C5 16.6688 5.52605 15.3988 6.46242 14.4624C7.39878 13.526 8.66877 13 9.993 13V13Z" stroke="black" stroke-width="2" stroke-linecap="round" stroke-linejoin="round"/>
<path d="M12 10C13.933 10 15.5 8.433 15.5 6.5C15.5 4.567 13.933 3 12 3C10.067 3 8.5 4.567 8.5 6.5C8.5 8.433 10.067 10 12 10Z" stroke="black" stroke-width="2" stroke-linecap="round" stroke-linejoin="round"/>
</svg>
