<?xml version="1.0" encoding="utf-8"?>
<svg xmlns="http://www.w3.org/2000/svg">
<symbol id="add-to-calendar" viewBox="0 0 24 24">
<path d="M9 13H15" stroke="black" stroke-width="2" stroke-linecap="round" stroke-linejoin="round"/>
<path d="M12 10V16" stroke="black" stroke-width="2" stroke-linecap="round" stroke-linejoin="round"/>
<path d="M18 6H6C4.89543 6 4 6.89543 4 8V18C4 19.1046 4.89543 20 6 20H18C19.1046 20 20 19.1046 20 18V8C20 6.89543 19.1046 6 18 6Z" stroke="black" stroke-width="2" stroke-linecap="round" stroke-linejoin="round"/>
<path d="M8 4V7" stroke="black" stroke-width="2" stroke-linecap="round" stroke-linejoin="round"/>
<path d="M16 4V7" stroke="black" stroke-width="2" stroke-linecap="round" stroke-linejoin="round"/>

</symbol>
<symbol id="add">

 <g>
  <title>background</title>
  <rect fill="none" id="canvas_background" height="402" width="582" y="-1" x="-1"/>
 </g>
 <g>
  <title>Layer 1</title>
  <line id="svg_1" x1="6.034284" y1="11.952645" y2="11.952645" stroke-width="2" stroke-linecap="round" stroke="currentColor" fill="none" x2="18.034284"/>
  <line id="svg_2" x1="6.034284" y1="11.952645" y2="11.952645" stroke-width="2" stroke-linecap="round" stroke="currentColor" fill="none" transform="rotate(90 12.034283638000488,11.95264530181885) " x2="18.034284"/>
 </g>

</symbol>
<symbol id="arrow-down" viewBox="0 0 24 24">
<path d="M16 10L12 14L8 10" stroke="#606060" stroke-width="2" stroke-miterlimit="10" stroke-linecap="round" stroke-linejoin="round"/>

</symbol>
<symbol id="arrow-large-right" viewBox="0 0 24 24">
  <g id="Group_7902" transform="translate(-144 -3139)">
    <rect id="Rectangle_8291" width="24" height="24" transform="translate(144 3139)" fill="none"/>
    <g id="Group_7706" transform="translate(-29.484 2252.752) rotate(45)">
      <line id="Line_2147" y1="11.25" x2="11.25" transform="translate(761 498.75)" fill="none" stroke="#231f20" stroke-linecap="round" stroke-miterlimit="10" stroke-width="2"/>
      <path id="Path_4693" d="M715,371v-9h-9" transform="translate(58 136)" fill="none" stroke="#231f20" stroke-linecap="round" stroke-miterlimit="10" stroke-width="2"/>
    </g>
  </g>

</symbol>
<symbol id="arrow-large-up-right" viewBox="0 0 24 24">
<path d="M4 20L19 5" stroke="#231F20" stroke-width="2" stroke-miterlimit="10" stroke-linecap="round"/>
<path d="M20 16V4H8" stroke="#231F20" stroke-width="2" stroke-miterlimit="10" stroke-linecap="round"/>

</symbol>
<symbol id="arrow-right" viewBox="0 0 24 24">
<path d="M10 8L14 12L10 16" stroke="#606060" stroke-width="2" stroke-miterlimit="10" stroke-linecap="round" stroke-linejoin="round"/>

</symbol>
<symbol id="arrow-up" viewBox="0 0 24 24">
<path d="M8 14L12 10L16 14" stroke="#606060" stroke-width="2" stroke-miterlimit="10" stroke-linecap="round" stroke-linejoin="round"/>

</symbol>
<symbol id="book" viewBox="0 0 24 24">
<path d="M12 6.116V18.116" stroke="black" stroke-width="2" stroke-linecap="round" stroke-linejoin="round"/>
<path d="M20 6.00198V14.73C19.9999 15.1375 19.8753 15.5351 19.643 15.8699C19.4107 16.2046 19.0817 16.4604 18.7 16.603L12 19.116L5.29999 16.603C4.91831 16.4604 4.58932 16.2046 4.35699 15.8699C4.12467 15.5351 4.0001 15.1375 4 14.73V6.00198C4.00008 5.67907 4.07838 5.36097 4.22815 5.07489C4.37792 4.7888 4.59472 4.54325 4.86005 4.35919C5.12537 4.17513 5.43129 4.05806 5.75171 4.01797C6.07213 3.97789 6.39752 4.01598 6.70001 4.129L12 6.116L17.3 4.129C17.6025 4.01598 17.9279 3.97789 18.2483 4.01797C18.5687 4.05806 18.8746 4.17513 19.14 4.35919C19.4053 4.54325 19.6221 4.7888 19.7719 5.07489C19.9216 5.36097 19.9999 5.67907 20 6.00198Z" stroke="black" stroke-width="2" stroke-linejoin="round"/>

</symbol>
<symbol id="bookmark" viewBox="0 0 24 24">
<path d="M17 19L12 15L7 19V7C7 6.46957 7.21074 5.96086 7.58582 5.58578C7.96089 5.21071 8.46957 5 9 5H15C15.5304 5 16.0391 5.21071 16.4142 5.58578C16.7893 5.96086 17 6.46957 17 7V19Z" stroke="black" stroke-width="2" stroke-linecap="round" stroke-linejoin="round"/>

</symbol>
<symbol id="check" viewBox="0 0 24 24">
  <g transform="translate(-138.793 -307.841)">
    <path d="M105,98.4l-5.6,6.4L97,102.4" transform="translate(49.5 217.099)" fill="none" stroke="#000" stroke-miterlimit="10" stroke-width="2"/>
  </g>

</symbol>
<symbol id="comic" viewBox="0 0 24 24">
  <g id="Group_7888" transform="translate(-288 -1010)">
    <rect id="Rectangle_8291" width="24" height="24" transform="translate(288 1010)" fill="none"/>
    <g id="Group_7849" transform="translate(-610 612)">
      <line id="Line_2152" x2="8" transform="translate(906 406)" fill="none" stroke="#000" stroke-linecap="round" stroke-linejoin="round" stroke-width="2"/>
      <line id="Line_2153" x2="6" transform="translate(906 410)" fill="none" stroke="#000" stroke-linecap="round" stroke-linejoin="round" stroke-width="2"/>
      <path id="Path_4782" d="M907.6,414.8,910,418l2.4-3.2a2,2,0,0,1,1.6-.8h2a2,2,0,0,0,2-2v-8a2,2,0,0,0-2-2H904a2,2,0,0,0-2,2v8a2,2,0,0,0,2,2h2A2,2,0,0,1,907.6,414.8Z" fill="none" stroke="#000" stroke-linecap="round" stroke-linejoin="round" stroke-width="2"/>
    </g>
  </g>

</symbol>
<symbol id="date" viewBox="0 0 24 24">
<path d="M4 11H20" stroke="black" stroke-width="2" stroke-linecap="round" stroke-linejoin="round"/>
<path d="M18 6H6C4.89543 6 4 6.89543 4 8V18C4 19.1046 4.89543 20 6 20H18C19.1046 20 20 19.1046 20 18V8C20 6.89543 19.1046 6 18 6Z" stroke="black" stroke-width="2" stroke-linecap="round" stroke-linejoin="round"/>
<path d="M8 4V7" stroke="black" stroke-width="2" stroke-linecap="round" stroke-linejoin="round"/>
<path d="M16 4V7" stroke="black" stroke-width="2" stroke-linecap="round" stroke-linejoin="round"/>

</symbol>
<symbol id="e-book" viewBox="0 0 24 24">
<path d="M17 3H7C5.89543 3 5 3.89543 5 5V19C5 20.1046 5.89543 21 7 21H17C18.1046 21 19 20.1046 19 19V5C19 3.89543 18.1046 3 17 3Z" stroke="black" stroke-width="2" stroke-linecap="round" stroke-linejoin="round"/>
<path d="M9 7H15" stroke="black" stroke-width="2" stroke-linecap="round" stroke-linejoin="round"/>
<path d="M9 11H15" stroke="black" stroke-width="2" stroke-linecap="round" stroke-linejoin="round"/>
<path d="M9 15H11" stroke="black" stroke-width="2" stroke-linecap="round" stroke-linejoin="round"/>

</symbol>
<symbol id="event" viewBox="0 0 24 24">
    <path fill="black" d="M18,5.08H17v-1a1,1,0,0,0-2,0v1H9v-1a1,1,0,0,0-2,0v1H6a3,3,0,0,0-3,3v10a3,3,0,0,0,3,3H18a3,3,0,0,0,3-3v-10A3,3,0,0,0,18,5.08Zm1,13a1,1,0,0,1-1,1H6a1,1,0,0,1-1-1v-10a1,1,0,0,1,1-1H7a1,1,0,0,0,2,0h6a1,1,0,1,0,2,0h1a1,1,0,0,1,1,1Z"/>
    <path fill="black" d="M14.25,9.93l-3.48,4.15L9.74,13A1,1,0,0,0,8.3,14.39l1.8,1.88a1,1,0,0,0,.72.31h0a1,1,0,0,0,.73-.35l4.2-5a1,1,0,0,0-1.53-1.29Z"/>

</symbol>
<symbol id="film" viewBox="0 0 24 24">
<path d="M12 20C16.4183 20 20 16.4183 20 12C20 7.58172 16.4183 4 12 4C7.58172 4 4 7.58172 4 12C4 16.4183 7.58172 20 12 20Z" stroke="black" stroke-width="2" stroke-linecap="round" stroke-linejoin="round"/>
<circle cx="12" cy="8" r="2" fill="black"/>
<circle cx="12" cy="16" r="2" fill="black"/>
<circle cx="8" cy="12" r="2" fill="black"/>
<circle cx="16" cy="12" r="2" fill="black"/>
<rect x="12" y="19" width="9" height="2" rx="1" fill="black"/>

</symbol>
<symbol id="game" viewBox="0 0 24 24">
    <path fill="black" d="M17,9H15V8a1,1,0,0,0-1-1H13a2,2,0,0,1,2-2,1,1,0,1,0,0-2,4,4,0,0,0-4,4H10A1,1,0,0,0,9,8V9H7a5,5,0,0,0-5,5v2.5a4.5,4.5,0,0,0,8.88,1l2.24,0a4.5,4.5,0,0,0,8.88-1V14A5,5,0,0,0,17,9Zm.5,10a2.49,2.49,0,0,1-2.44-1.93,2,2,0,0,0-1.94-1.57H10.87a2,2,0,0,0-1.95,1.57A2.47,2.47,0,0,1,6.49,19,2.5,2.5,0,0,1,4,16.5V14a3,3,0,0,1,3-3H17a3,3,0,0,1,3,3v2.5A2.5,2.5,0,0,1,17.49,19Z"/>
    <path fill="black" d="M15.47,12.69h0A2,2,0,0,0,15,14.15,2,2,0,0,0,17,16h.15a1.93,1.93,0,0,0,1.36-.68,2,2,0,0,0-.21-2.83A2,2,0,0,0,15.47,12.69Z"/>
    <path fill="black" d="M8,13a1,1,0,0,0-2,0,1,1,0,0,0,0,2,1,1,0,0,0,2,0,1,1,0,1,0,0-2Z"/>

</symbol>
<symbol id="grid" viewBox="0 0 24 24">
<path d="M7 4H5C4.44772 4 4 4.44772 4 5V7C4 7.55228 4.44772 8 5 8H7C7.55228 8 8 7.55228 8 7V5C8 4.44772 7.55228 4 7 4Z" fill="black"/>
<path d="M13 4H11C10.4477 4 10 4.44772 10 5V7C10 7.55228 10.4477 8 11 8H13C13.5523 8 14 7.55228 14 7V5C14 4.44772 13.5523 4 13 4Z" fill="black"/>
<path d="M19 4H17C16.4477 4 16 4.44772 16 5V7C16 7.55228 16.4477 8 17 8H19C19.5523 8 20 7.55228 20 7V5C20 4.44772 19.5523 4 19 4Z" fill="black"/>
<path d="M7 10H5C4.44772 10 4 10.4477 4 11V13C4 13.5523 4.44772 14 5 14H7C7.55228 14 8 13.5523 8 13V11C8 10.4477 7.55228 10 7 10Z" fill="black"/>
<path d="M13 10H11C10.4477 10 10 10.4477 10 11V13C10 13.5523 10.4477 14 11 14H13C13.5523 14 14 13.5523 14 13V11C14 10.4477 13.5523 10 13 10Z" fill="black"/>
<path d="M19 10H17C16.4477 10 16 10.4477 16 11V13C16 13.5523 16.4477 14 17 14H19C19.5523 14 20 13.5523 20 13V11C20 10.4477 19.5523 10 19 10Z" fill="black"/>
<path d="M7 16H5C4.44772 16 4 16.4477 4 17V19C4 19.5523 4.44772 20 5 20H7C7.55228 20 8 19.5523 8 19V17C8 16.4477 7.55228 16 7 16Z" fill="black"/>
<path d="M13 16H11C10.4477 16 10 16.4477 10 17V19C10 19.5523 10.4477 20 11 20H13C13.5523 20 14 19.5523 14 19V17C14 16.4477 13.5523 16 13 16Z" fill="black"/>
<path d="M19 16H17C16.4477 16 16 16.4477 16 17V19C16 19.5523 16.4477 20 17 20H19C19.5523 20 20 19.5523 20 19V17C20 16.4477 19.5523 16 19 16Z" fill="black"/>

</symbol>
<symbol id="home" viewBox="0 0 24 24">
<path d="M10.683 4.495L4.68298 9.745C4.46834 9.93281 4.29639 10.1644 4.17859 10.4241C4.06079 10.6838 3.99988 10.9658 4 11.251V17.343C4 17.8734 4.21074 18.3821 4.58582 18.7572C4.96089 19.1323 5.46957 19.343 6 19.343H8C8.53043 19.343 9.03911 19.1323 9.41418 18.7572C9.78926 18.3821 10 17.8734 10 17.343V16.343C10 15.8126 10.2107 15.3038 10.5858 14.9288C10.9609 14.5537 11.4696 14.343 12 14.343C12.5304 14.343 13.0391 14.5537 13.4142 14.9288C13.7893 15.3038 14 15.8126 14 16.343V17.343C14 17.8734 14.2107 18.3821 14.5858 18.7572C14.9609 19.1323 15.4696 19.343 16 19.343H18C18.5304 19.343 19.0391 19.1323 19.4142 18.7572C19.7893 18.3821 20 17.8734 20 17.343V11.251C20.0001 10.9658 19.9392 10.6838 19.8214 10.4241C19.7036 10.1644 19.5317 9.93281 19.317 9.745L13.317 4.495C12.9524 4.17599 12.4844 4.00015 12 4.00015C11.5156 4.00015 11.0476 4.17599 10.683 4.495V4.495Z" stroke="black" stroke-width="2" stroke-linecap="round" stroke-linejoin="round"/>

</symbol>
<symbol id="large-list" viewBox="0 0 24 24">
<path d="M10 4H5C4.44772 4 4 4.44772 4 5V10C4 10.5523 4.44772 11 5 11H10C10.5523 11 11 10.5523 11 10V5C11 4.44772 10.5523 4 10 4Z" fill="black"/>
<path d="M19 4H14C13.4477 4 13 4.44772 13 5V10C13 10.5523 13.4477 11 14 11H19C19.5523 11 20 10.5523 20 10V5C20 4.44772 19.5523 4 19 4Z" fill="black"/>
<path d="M10 13H5C4.44772 13 4 13.4477 4 14V19C4 19.5523 4.44772 20 5 20H10C10.5523 20 11 19.5523 11 19V14C11 13.4477 10.5523 13 10 13Z" fill="black"/>
<path d="M19 13H14C13.4477 13 13 13.4477 13 14V19C13 19.5523 13.4477 20 14 20H19C19.5523 20 20 19.5523 20 19V14C20 13.4477 19.5523 13 19 13Z" fill="black"/>

</symbol>
<symbol id="list" viewBox="0 0 24 24">
<path d="M7 4H5C4.44772 4 4 4.44772 4 5V7C4 7.55228 4.44772 8 5 8H7C7.55228 8 8 7.55228 8 7V5C8 4.44772 7.55228 4 7 4Z" fill="black"/>
<path d="M19 5H11C10.4477 5 10 5.44772 10 6C10 6.55228 10.4477 7 11 7H19C19.5523 7 20 6.55228 20 6C20 5.44772 19.5523 5 19 5Z" fill="black"/>
<path d="M7 10H5C4.44772 10 4 10.4477 4 11V13C4 13.5523 4.44772 14 5 14H7C7.55228 14 8 13.5523 8 13V11C8 10.4477 7.55228 10 7 10Z" fill="black"/>
<path d="M19 11H11C10.4477 11 10 11.4477 10 12C10 12.5523 10.4477 13 11 13H19C19.5523 13 20 12.5523 20 12C20 11.4477 19.5523 11 19 11Z" fill="black"/>
<path d="M7 16H5C4.44772 16 4 16.4477 4 17V19C4 19.5523 4.44772 20 5 20H7C7.55228 20 8 19.5523 8 19V17C8 16.4477 7.55228 16 7 16Z" fill="black"/>
<path d="M19 17H11C10.4477 17 10 17.4477 10 18C10 18.5523 10.4477 19 11 19H19C19.5523 19 20 18.5523 20 18C20 17.4477 19.5523 17 19 17Z" fill="black"/>

</symbol>
<symbol id="location" viewBox="0 0 24 24">
<path d="M11.1 10.468L15 9L13.532 12.9C13.4789 13.0449 13.3949 13.1766 13.2857 13.2857C13.1766 13.3949 13.045 13.4789 12.9 13.532L9 15L10.468 11.1C10.5211 10.9551 10.6051 10.8234 10.7143 10.7143C10.8234 10.6051 10.955 10.5211 11.1 10.468V10.468Z" stroke="black" stroke-width="2" stroke-linecap="round" stroke-linejoin="round"/>
<path d="M12 20C16.4183 20 20 16.4183 20 12C20 7.58172 16.4183 4 12 4C7.58172 4 4 7.58172 4 12C4 16.4183 7.58172 20 12 20Z" stroke="black" stroke-width="2" stroke-linecap="round" stroke-linejoin="round"/>
<path d="M10.714 10.714L13.285 13.285L9 15L10.714 10.714Z" fill="black"/>

</symbol>
<symbol id="map" viewBox="0 0 24 24">
<path d="M20 16.2L14.667 19L9.33301 16.2L4 19V7.79999L9.33301 5L14.667 7.79999L20 5V16.2Z" stroke="black" stroke-width="2" stroke-linecap="round" stroke-linejoin="round"/>
<path d="M9.33698 5V16.2" stroke="black" stroke-width="2" stroke-miterlimit="10"/>
<path d="M14.667 7.79999V19" stroke="black" stroke-width="2" stroke-miterlimit="10"/>

</symbol>
<symbol id="menu" viewBox="0 0 24 24">
<path d="M4 18H20" stroke="#222222" stroke-width="2" stroke-linecap="round"/>
<path d="M4 12H20" stroke="#222222" stroke-width="2" stroke-linecap="round"/>
<path d="M4 6H20" stroke="#222222" stroke-width="2" stroke-linecap="round"/>

</symbol>
<symbol id="music" viewBox="0 0 24 24">
  <g id="Group_7885" transform="translate(-591 -995)">
    <rect width="24" height="24" transform="translate(591 995)" fill="none"/>
    <g id="Group_7845" transform="translate(-267 637)">
      <path fill="currentColor" d="M875,377a4,4,0,1,1,4-4A4,4,0,0,1,875,377Zm0-6a2,2,0,1,0,2,2A2,2,0,0,0,875,371Z"/>
      <path fill="currentColor" d="M865,379a4,4,0,1,1,4-4A4,4,0,0,1,865,379Zm0-6a2,2,0,1,0,2,2A2,2,0,0,0,865,373Z"/>
      <path fill="currentColor" d="M868,376a1,1,0,0,1-1-1v-9.2a1,1,0,0,1,2,0V375A1,1,0,0,1,868,376Z"/>
      <path fill="currentColor" d="M878,374a1,1,0,0,1-1-1v-9a1,1,0,0,0-1.287-.958l-6,1.8a.994.994,0,0,0-.713.958.87.87,0,0,0,1.119.832l4.594-1.378a1,1,0,1,1,.574,1.916l-4.594,1.378A2.868,2.868,0,0,1,867,365.8a2.982,2.982,0,0,1,2.139-2.874l6-1.8A3,3,0,0,1,879,364v9A1,1,0,0,1,878,374Z"/>
    </g>
  </g>

</symbol>
<symbol id="new-tab" viewBox="0 0 24 24">
<path d="M13 4H20V11" stroke="black" stroke-width="2" stroke-linecap="round" stroke-linejoin="round"/>
<path d="M20 4L10 14" stroke="black" stroke-width="2" stroke-linecap="round" stroke-linejoin="round"/>
<path d="M7 4H6C5.46957 4 4.96089 4.21071 4.58582 4.58578C4.21074 4.96086 4 5.46957 4 6V18C4 18.5304 4.21074 19.0391 4.58582 19.4142C4.96089 19.7893 5.46957 20 6 20H18C18.5304 20 19.0391 19.7893 19.4142 19.4142C19.7893 19.0391 20 18.5304 20 18V17" stroke="black" stroke-width="2" stroke-linecap="round" stroke-linejoin="round"/>

</symbol>
<symbol id="podcast" viewBox="0 0 604.2 604.2">
    <defs>
        <style>.cls-1{stroke-width:33px;}.cls-1,.cls-2{fill:none;stroke:currentColor;stroke-linecap:round;stroke-miterlimit:10;}.cls-2{stroke-width:37.73px;}</style>
    </defs>
    <path class="cls-1" d="M139.2,287.37c8.39,80.49,81.85,141.86,166.85,140.15,83.83-1.69,153.86-64.23,160.14-143.76"/>
    <path class="cls-1" d="M395.24,160.15c-3.56-51.6-43.19-92.18-90.64-93.28-48.11-1.11-89.69,38.71-94.44,90.93l.53,106.89c4.75,52.22,46.32,92.04,94.44,90.93,47.45-1.1,87.08-41.67,90.64-93.28l-.53-102.2Z"/>
    <path class="cls-1" d="M88.5,84.91s-40.36,48.51-8.67,145.5"/>
    <path class="cls-1" d="M518.97,85.09s39.83,48.94,7.12,145.58"/>
    <path class="cls-1" d="M456.01,121.77s20,26.13,3.79,77.55"/>
    <path class="cls-1" d="M149.75,122.68s-20.28,25.91-4.62,77.5"/>
    <line class="cls-1" x1="302.97" y1="539.74" x2="302.97" y2="427.51"/>
    <line class="cls-2" x1="375.63" y1="539.74" x2="228.92" y2="539.74"/>

</symbol>
<symbol id="remove">

 <g>
  <title>background</title>
  <rect fill="none" id="canvas_background" height="402" width="582" y="-1" x="-1"/>
 </g>
 <g>
  <title>Layer 1</title>
  <line id="svg_1" x1="6.034284" y1="11.952645" y2="11.952645" stroke-width="2" stroke-linecap="round" stroke="currentColor" fill="none" x2="18.034284"/>
 </g>

</symbol>
<symbol id="search" viewBox="0 0 24 24">
<path d="M13.5 17C17.0899 17 20 14.0899 20 10.5C20 6.91015 17.0899 4 13.5 4C9.91015 4 7 6.91015 7 10.5C7 14.0899 9.91015 17 13.5 17Z" stroke="black" stroke-width="2" stroke-linecap="round" stroke-linejoin="round"/>
<path d="M4 20L7 17" stroke="black" stroke-width="2" stroke-linecap="round" stroke-linejoin="round"/>

</symbol>
<symbol id="share" viewBox="0 0 24 24">
<path d="M20 15.364V17.728C20 18.2584 19.7893 18.7671 19.4142 19.1422C19.0391 19.5173 18.5304 19.728 18 19.728H6C5.46957 19.728 4.96089 19.5173 4.58582 19.1422C4.21074 18.7671 4 18.2584 4 17.728V15.364" stroke="black" stroke-width="2" stroke-linecap="round" stroke-linejoin="round"/>
<path d="M6 11L12 5L18 11" stroke="black" stroke-width="2" stroke-linecap="round" stroke-linejoin="round"/>
<path d="M12 5V16" stroke="black" stroke-width="2" stroke-linecap="round" stroke-linejoin="round"/>

</symbol>
<symbol id="soundbook" viewBox="0 0 24 24">
<path d="M7 11.818V10C7 8.67392 7.5268 7.40213 8.46448 6.46445C9.40216 5.52677 10.6739 5 12 5C13.3261 5 14.5978 5.52677 15.5355 6.46445C16.4732 7.40213 17 8.67392 17 10V11.818" stroke="black" stroke-width="2" stroke-linejoin="round"/>
<path d="M7.645 18.818H6.355C5.73041 18.818 5.13141 18.5699 4.68976 18.1282C4.24811 17.6866 4 17.0876 4 16.463L4 13.992C3.99987 13.6826 4.06069 13.3763 4.17898 13.0905C4.29727 12.8046 4.47071 12.5449 4.68941 12.3261C4.9081 12.1073 5.16776 11.9338 5.45355 11.8154C5.73934 11.6969 6.04565 11.636 6.355 11.636H7.645C7.82302 11.636 7.99931 11.6711 8.16377 11.7392C8.32823 11.8074 8.47765 11.9073 8.60348 12.0332C8.72932 12.1591 8.82911 12.3086 8.89714 12.4732C8.96518 12.6377 9.00013 12.814 9 12.992V17.463C9 17.8224 8.85724 18.167 8.60313 18.4211C8.34902 18.6752 8.00437 18.818 7.645 18.818V18.818Z" stroke="black" stroke-width="2" stroke-linecap="round" stroke-linejoin="round"/>
<path d="M16.355 11.636H17.645C18.2696 11.636 18.8686 11.8841 19.3102 12.3257C19.7519 12.7674 20 13.3664 20 13.991V16.462C20.0001 16.7713 19.9393 17.0777 19.821 17.3635C19.7027 17.6494 19.5293 17.9091 19.3106 18.1279C19.0919 18.3467 18.8322 18.5202 18.5465 18.6386C18.2607 18.757 17.9543 18.818 17.645 18.818H16.355C16.177 18.818 16.0007 18.7829 15.8362 18.7147C15.6718 18.6466 15.5224 18.5467 15.3965 18.4208C15.2707 18.2948 15.1709 18.1453 15.1029 17.9808C15.0348 17.8163 14.9999 17.64 15 17.462V12.991C15 12.6316 15.1428 12.287 15.3969 12.0329C15.651 11.7787 15.9956 11.636 16.355 11.636V11.636Z" stroke="black" stroke-width="2" stroke-linecap="round" stroke-linejoin="round"/>

</symbol>
<symbol id="time" viewBox="0 0 24 24">
<path d="M12 20C16.4183 20 20 16.4183 20 12C20 7.58172 16.4183 4 12 4C7.58172 4 4 7.58172 4 12C4 16.4183 7.58172 20 12 20Z" stroke="black" stroke-width="2" stroke-linecap="round" stroke-linejoin="round"/>
<path d="M12 12V8" stroke="black" stroke-width="2" stroke-linecap="round" stroke-linejoin="round"/>
<path d="M12 12L10 14" stroke="black" stroke-width="2" stroke-linecap="round" stroke-linejoin="round"/>

</symbol>
<symbol id="user" viewBox="0 0 24 24">
<path d="M9.993 13H14.007C14.6627 13 15.312 13.1291 15.9177 13.3801C16.5235 13.631 17.0739 13.9988 17.5376 14.4624C18.0012 14.9261 18.369 15.4765 18.6199 16.0823C18.8709 16.688 19 17.3373 19 17.993V19C19 19.5304 18.7893 20.0391 18.4142 20.4142C18.0391 20.7893 17.5304 21 17 21H7C6.46957 21 5.96086 20.7893 5.58579 20.4142C5.21071 20.0391 5 19.5304 5 19V17.993C5 16.6688 5.52605 15.3988 6.46242 14.4624C7.39878 13.526 8.66877 13 9.993 13V13Z" stroke="black" stroke-width="2" stroke-linecap="round" stroke-linejoin="round"/>
<path d="M12 10C13.933 10 15.5 8.433 15.5 6.5C15.5 4.567 13.933 3 12 3C10.067 3 8.5 4.567 8.5 6.5C8.5 8.433 10.067 10 12 10Z" stroke="black" stroke-width="2" stroke-linecap="round" stroke-linejoin="round"/>

</symbol>
<symbol id="close" viewBox="0 0 24 24">
  <g transform="translate(-158 -438)">
    <line id="Line_2082" x2="18" transform="translate(163.5 455.622) rotate(-45)" fill="none" stroke="#222" stroke-linecap="round" stroke-width="2"/>
    <line id="Line_2084" x2="18" transform="translate(163.5 443.5) rotate(45)" fill="none" stroke="#222" stroke-linecap="round" stroke-width="2"/>
    <rect id="Rectangle_8372" width="24" height="24" transform="translate(158 438)" fill="none"/>
  </g>

</symbol></svg>